<svg xmlns:xlink="http://www.w3.org/1999/xlink" xmlns="http://www.w3.org/2000/svg" width="395.99293212890626" height="119.05774293985422" viewBox="0 0 369.89473684210526 111.211157878486" class="looka-1j8o68f"><defs id="SvgjsDefs1011"></defs><g id="SvgjsG1012" featurekey="S6ay6y-0" transform="matrix(2.1671826625387,0,0,2.1671826625387,-40.634674922600624,-31.08173169587788)" fill="#080808"><g xmlns="http://www.w3.org/2000/svg" fill="#080808"><path d="M53.06,18.592v-2.25c0-1.104-0.896-2-2-2s-2,0.896-2,2v1.816H31.372v-1.816c0-1.104-0.896-2-2-2s-2,0.896-2,2v2.139   c-4.938,1.188-8.622,5.631-8.622,10.928v2.261h42.5v-2.261C61.25,24.267,57.778,19.93,53.06,18.592z M40,28.675   c-1.653,0-3-1.346-3-3s1.347-3,3-3s3,1.346,3,3S41.653,28.675,40,28.675z" fill="#080808"></path><path d="M18.75,54.408c0,6.203,5.047,11.25,11.25,11.25h20c6.203,0,11.25-5.047,11.25-11.25V35.67h-42.5V54.408z M37.854,60.088   l-0.579,1.466c-0.144,0.364-0.493,0.587-0.862,0.587c-0.113,0-0.229-0.021-0.34-0.064c-0.477-0.188-0.71-0.727-0.522-1.203   l0.578-1.466c0.188-0.476,0.726-0.708,1.202-0.522C37.808,59.073,38.041,59.611,37.854,60.088z M52.171,55.119   C52.024,55.48,51.678,55.7,51.31,55.7c-0.114,0-0.23-0.021-0.344-0.065l-1.464-0.587c-0.476-0.19-0.706-0.73-0.516-1.206   c0.19-0.475,0.729-0.705,1.205-0.516l1.464,0.587C52.13,54.104,52.36,54.643,52.171,55.119z M49.397,45.76l1.449-0.617   c0.472-0.201,1.015,0.018,1.215,0.49c0.201,0.471-0.019,1.015-0.488,1.215l-1.451,0.617c-0.117,0.051-0.24,0.074-0.362,0.074   c-0.36,0-0.702-0.211-0.853-0.564C48.706,46.505,48.927,45.96,49.397,45.76z M45.56,61.918c-0.12,0.051-0.245,0.076-0.368,0.076   c-0.358,0-0.7-0.209-0.851-0.56l-0.625-1.448c-0.203-0.47,0.014-1.016,0.482-1.219c0.471-0.203,1.016,0.014,1.219,0.484   l0.625,1.447C46.245,61.17,46.028,61.715,45.56,61.918z M43.497,40.955l0.592-1.459c0.191-0.476,0.73-0.705,1.205-0.512   c0.475,0.191,0.704,0.732,0.512,1.206l-0.591,1.46c-0.146,0.361-0.493,0.579-0.858,0.579c-0.116,0-0.234-0.021-0.348-0.067   C43.534,41.97,43.306,41.43,43.497,40.955z M39.618,45.62c0.559-0.829,1.613-1.229,2.607-0.9S43.828,46,43.781,47l0.006-0.002   l0.137,5.439l-7.617-2.596l3.308-4.225L39.618,45.62z M35.812,39.043c0.471-0.199,1.016,0.024,1.213,0.496l0.608,1.453   c0.198,0.472-0.023,1.015-0.495,1.212c-0.117,0.05-0.24,0.072-0.359,0.072c-0.361,0-0.705-0.214-0.854-0.568l-0.609-1.452   C35.117,39.783,35.339,39.24,35.812,39.043z M34.797,51.986c0.072-0.217,0.183-0.408,0.308-0.586l8.846,3.014   c-0.01,0.189-0.035,0.381-0.098,0.57c-0.396,1.197-1.691,1.848-2.889,1.453c0,0,0,0-0.002,0l-4.738-1.57v-0.003   C35.044,54.459,34.403,53.175,34.797,51.986z M31.902,55.343l-1.444,0.632c-0.12,0.053-0.247,0.078-0.37,0.078   c-0.357,0-0.698-0.207-0.85-0.557c-0.206-0.469,0.009-1.015,0.478-1.219l1.445-0.633c0.47-0.207,1.015,0.011,1.219,0.479   C32.586,54.592,32.371,55.139,31.902,55.343z M29.129,45.774c0.195-0.473,0.74-0.696,1.21-0.504l1.455,0.6   c0.473,0.196,0.699,0.737,0.504,1.21c-0.147,0.357-0.493,0.574-0.857,0.574c-0.117,0-0.237-0.023-0.353-0.07l-1.455-0.6   C29.159,46.789,28.935,46.248,29.129,45.774z" fill="#080808"></path></g></g><g id="SvgjsG1013" featurekey="j5pGhi-0" transform="matrix(3.0770637273385306,0,0,3.0770637273385306,108.92293627266147,13.168185441128447)" fill="#000000"><path d="M1 20 l0 -11.98 c0 -0.5 0.1 -0.6 0.26 -0.6 l8.76 0 c0.14 0 0.26 0.1 0.26 0.24 l0 2.26 c0 0.14 -0.12 0.26 -0.26 0.26 l-5.92 0 l0 2.08 l3.74 0 c0.14 0 0.26 0.12 0.26 0.26 l0 2.24 c0 0.14 -0.12 0.26 -0.26 0.26 l-3.74 0 l0 2.14 l5.9 0 c0.14 0 0.26 0.12 0.26 0.26 l0 2.24 c0 0.14 -0.12 0.26 -0.26 0.26 l-8.74 0 c-0.16 0 -0.26 -0.12 -0.26 0.08 z M16.54 20 c-0.1 0 -0.2 -0.06 -0.24 -0.16 l-4 -12 c-0.04 -0.08 -0.02 -0.16 0.02 -0.24 c0.06 -0.06 0.14 -0.1 0.22 -0.1 l2.8 0 c0.1 0 0.2 0.06 0.24 0.18 l2.38 7.82 l2.4 -7.82 c0.04 -0.12 0.14 -0.18 0.24 -0.18 l2.68 0 c0.08 0 0.16 0.04 0.22 0.1 c0.04 0.08 0.06 0.16 0.02 0.24 l-4.06 12 c-0.04 0.1 -0.12 0.16 -0.24 0.16 l-2.68 0 z M25.54 20 l0 -11.98 c0 -0.5 0.1 -0.6 0.26 -0.6 l8.76 0 c0.14 0 0.26 0.1 0.26 0.24 l0 2.26 c0 0.14 -0.12 0.26 -0.26 0.26 l-5.92 0 l0 2.08 l3.74 0 c0.14 0 0.26 0.12 0.26 0.26 l0 2.24 c0 0.14 -0.12 0.26 -0.26 0.26 l-3.74 0 l0 2.14 l5.9 0 c0.14 0 0.26 0.12 0.26 0.26 l0 2.24 c0 0.14 -0.12 0.26 -0.26 0.26 l-8.74 0 c-0.16 0 -0.26 -0.12 -0.26 0.08 z M37.08 20 c-0.14 0 -0.26 -0.12 -0.26 -0.26 l0 -11.98 c0 -0.14 0.12 -0.26 0.26 -0.26 l2.36 0 c0.08 0 0.16 0.04 0.22 0.1 l4.6 7.1 l0 -6.94 c0 -0.14 0.12 -0.26 0.26 -0.26 l2.46 0 c0.14 0 0.26 0.12 0.26 0.26 l0 11.98 c0 0.14 -0.12 0.26 -0.26 0.26 l-2.36 0 c-0.08 0 -0.16 -0.04 -0.22 -0.1 l-4.58 -7.06 l0 6.9 c0 0.14 -0.12 0.26 -0.26 0.26 l-2.48 0 z M52.480000000000004 20 c-0.14 0 -0.24 -0.12 -0.24 -0.26 l0 -9.44 l-2.74 0 c-0.14 0 -0.26 -0.1 -0.26 -0.24 l0 -2.3 c0 -0.14 0.12 -0.26 0.26 -0.26 l8.58 0 c0.16 0 0.26 0.12 0.26 0.26 l0 2.3 c0 0.14 -0.1 0.24 -0.26 0.24 l-2.74 0 l0 9.44 c0 0.14 -0.12 0.26 -0.26 0.26 l-2.6 0 z M60.6 20 c-0.16 0 -0.26 -0.12 -0.26 -0.26 l0 -11.98 c0 -0.14 0.1 -0.26 0.26 -0.26 l4.88 0 c1.52 0 2.72 0.38 3.56 1.16 c1.24 1.12 1.66 3.24 1.06 4.8 c-0.22 0.56 -0.6 1.08 -1.08 1.46 c-0.28 0.22 -0.58 0.38 -0.88 0.54 c0.86 1.36 2.16 4.12 2.16 4.12 c0.02 0.04 0.06 0.1 0.06 0.16 c0 0.14 -0.12 0.26 -0.26 0.26 l-2.96 0 c-0.08 0 -0.18 -0.06 -0.22 -0.14 l-1.74 -3.82 c-0.62 0.04 -1.1 0.02 -1.74 0.02 l0 3.68 c0 0.14 -0.12 0.26 -0.26 0.26 l-2.58 0 z M63.440000000000005 13.280000000000001 c0 0 2.52 0.28 3.4 -0.3 c0.34 -0.22 0.54 -0.76 0.54 -1.16 c-0.02 -0.44 -0.24 -0.9 -0.6 -1.18 c-0.38 -0.32 -1.32 -0.42 -1.8 -0.42 l-1.54 0.04 l0 3.02 z M72.64000000000001 20 c-0.08 0 -0.16 -0.04 -0.2 -0.12 c-0.06 -0.06 -0.06 -0.16 -0.04 -0.24 l4.66 -11.98 c0.04 -0.1 0.14 -0.16 0.24 -0.16 l2.68 0 c0.1 0 0.2 0.06 0.24 0.16 l4.58 11.98 c0.02 0.08 0.02 0.16 -0.04 0.24 c-0.04 0.08 -0.12 0.12 -0.2 0.12 l-2.78 0 c-0.1 0 -0.2 -0.06 -0.24 -0.16 l-0.74 -1.84 l-4.5 0.02 l-0.74 1.82 c-0.04 0.1 -0.14 0.16 -0.24 0.16 l-2.68 0 z M77.12 15.5 l2.88 0 l-1.44 -4.24 z"></path></g></svg>